<svg xmlns="http://www.w3.org/2000/svg" viewBox="0 0 32 32" width="32" height="32">
  <!-- Définitions des dégradés -->
  <defs>
    <linearGradient id="trackGradient" x1="0%" y1="0%" x2="100%" y2="100%">
      <stop offset="0%" style="stop-color:#ff6b35;stop-opacity:1" />
      <stop offset="100%" style="stop-color:#f7931e;stop-opacity:1" />
    </linearGradient>
    <linearGradient id="markerGradient" x1="0%" y1="0%" x2="100%" y2="100%">
      <stop offset="0%" style="stop-color:#ffffff;stop-opacity:1" />
      <stop offset="100%" style="stop-color:#f0f0f0;stop-opacity:1" />
    </linearGradient>
    <filter id="shadow" x="-50%" y="-50%" width="200%" height="200%">
      <feDropShadow dx="1" dy="1" stdDeviation="1.5" flood-color="#000" flood-opacity="0.3"/>
    </filter>
  </defs>
  
  <!-- Fond circulaire -->
  <circle cx="16" cy="16" r="15" fill="url(#trackGradient)" filter="url(#shadow)"/>
  
  <!-- Piste d'athlétisme ovale extérieure -->
  <ellipse cx="16" cy="16" rx="12" ry="8" 
           fill="none" 
           stroke="#fff" 
           stroke-width="2" 
           opacity="0.9"/>
  
  <!-- Piste d'athlétisme ovale intérieure -->
  <ellipse cx="16" cy="16" rx="9" ry="6" 
           fill="none" 
           stroke="#fff" 
           stroke-width="1.5" 
           opacity="0.7"/>
  
  <!-- Lignes de couloirs de la piste -->
  <ellipse cx="16" cy="16" rx="10.5" ry="7" 
           fill="none" 
           stroke="#fff" 
           stroke-width="0.5" 
           opacity="0.5"/>
  
  <!-- Ligne de départ/arrivée -->
  <line x1="16" y1="8" x2="16" y2="12" 
        stroke="#fff" 
        stroke-width="2" 
        opacity="0.8"/>
  
  <!-- Marqueur géographique au centre -->
  <g transform="translate(16, 16)">
    <!-- Corps du marqueur -->
    <path d="M 0 -4 C -2.5 -4 -4.5 -2 -4.5 0.5 C -4.5 3 0 8 0 8 C 0 8 4.5 3 4.5 0.5 C 4.5 -2 2.5 -4 0 -4 Z" 
          fill="url(#markerGradient)" 
          stroke="#ff6b35" 
          stroke-width="1"/>
    
    <!-- Point central du marqueur -->
    <circle cx="0" cy="-1.5" r="1.5" fill="#ff6b35"/>
  </g>
  
  <!-- Petits points décoratifs sur la piste -->
  <g fill="#fff" opacity="0.6">
    <circle cx="8" cy="16" r="0.5"/>
    <circle cx="24" cy="16" r="0.5"/>
    <circle cx="16" cy="10" r="0.5"/>
    <circle cx="16" cy="22" r="0.5"/>
  </g>
  
  <!-- Effet de brillance subtil -->
  <ellipse cx="12" cy="12" rx="3" ry="2" 
           fill="rgba(255, 255, 255, 0.2)" 
           transform="rotate(-30 12 12)"/>
</svg> 